<?xml version="1.0" encoding="utf-8"?>
<!-- Generator: Adobe Illustrator 19.2.1, SVG Export Plug-In . SVG Version: 6.00 Build 0)  -->
<svg version="1.1" id="Layer_1" xmlns="http://www.w3.org/2000/svg" xmlns:xlink="http://www.w3.org/1999/xlink" x="0px" y="0px"
	 viewBox="0 0 330 110" style="enable-background:new 0 0 330 110;" xml:space="preserve">
<style type="text/css">
	.st0{fill:#ED1C24;}
</style>
<g>
	<path class="st0" d="M272,38.1v33.9h12V59.8h4.1l14.6,12.2H320l-20.6-16.8l19.4-17.3h-17.1l-13.6,12h-4.6V38.1L272,38.1L272,38.1z
		 M37.2,38.1h8.5L64,71.9H51.1l-3.2-5.6H37.2H26.6l-3.2,5.6H10l18.7-33.9L37.2,38.1L37.2,38.1z M37.2,57.6h5.6l-5.6-9.9l0,0
		l-5.6,10.1h5.6V57.6z M65.6,38.1v33.9h12.2V59.8h4.1l14.6,12.2h17.3L93.1,55.2l19.4-17.3H95.4l-13.6,12h-4.6V38.1L65.6,38.1
		L65.6,38.1z M137,38.1c4.6,0,9.2,0,13.8,0c2.1,0,6,1.9,7.2,5.8c1.1,3.4,0.4,8.8-2.6,10.9c2.1,0.9,3.5,4.2,3.7,7.6v1.4
		c0,0.5-0.2,1.2-0.2,1.8c-0.7,3.7-3.7,6.5-6.2,6.5c-5.3,0-10.6,0-15.9,0c-6.9,0-13.9,0-20.8,0c0-11.3,0-22.6,0-34.1
		C123.1,38.1,130.2,38.1,137,38.1L137,38.1z M137,62.6h8.6c1.1,0,1.9-0.9,1.9-1.8c0-1.1-0.9-1.8-1.9-1.8H137h-9.9v3.5H137L137,62.6z
		 M137,50.4h8.1c1.1,0,1.9-0.9,1.9-1.8c0-0.9-0.9-1.8-1.9-1.8H137h-9.9v3.5H137L137,50.4z M216.4,38.1v33.9h12.2V49.2l17.3,22.8
		h18.9V38.1h-12v23.6l-17.6-23.8L216.4,38.1L216.4,38.1z M187.8,38.1h8.5l18.2,34.1h-12.7l-3.2-5.6h-10.8h-10.6l-3.2,5.6h-13.4
		l18.7-33.9h8.5V38.1z M187.8,57.6h5.8l-5.8-9.9l0,0l-5.6,10.1h5.6V57.6z"/>
</g>
</svg>
