<?xml version="1.0" encoding="utf-8"?>
<!-- Generator: Adobe Illustrator 19.2.1, SVG Export Plug-In . SVG Version: 6.00 Build 0)  -->
<svg version="1.1" id="Layer_1" xmlns="http://www.w3.org/2000/svg" xmlns:xlink="http://www.w3.org/1999/xlink" x="0px" y="0px"
	 viewBox="0 0 330 110" style="enable-background:new 0 0 330 110;" xml:space="preserve">
<style type="text/css">
	.st0{fill-rule:evenodd;clip-rule:evenodd;fill:#E8262B;}
	.st1{fill-rule:evenodd;clip-rule:evenodd;fill:#EE7A2A;}
	.st2{fill-rule:evenodd;clip-rule:evenodd;fill:#1B7246;}
	.st3{fill-rule:evenodd;clip-rule:evenodd;fill:#FFFBFC;}
</style>
<g>
	<path class="st0" d="M278.3,75.7c0,13.4,6.9,26.5,22.3,26.5h1.2c12.4,0,23.2-8.4,23.2-20.3V79c0-8.1-11.7-29.3-15.7-32.2
		c0,7.7,0,15.4,0,23.2c0,8.1,1.1,16.5-7,16.5c-4.2,0-8.7-2.7-8.7-6.6c0-2,5.3-15.3,6.4-18.4c0.9-2.6,6.5-17.3,6.5-18.3
		c0-1.4-4.2-7.6-5.4-7.9c-0.6,2.4-9.7,16.3-11.7,19.7C286.9,59.1,278.3,70.8,278.3,75.7L278.3,75.7z"/>
	<path class="st1" d="M247.7,29.8c0,6.6,3.4,14.2,6,18.4c1.8,2.9,7.8,13.2,9.8,14.6c0-7.6,0-15.2,0-22.7c0-7.6-1.3-16.5,6.2-16.5
		h1.2c3.6,0,7.9,2.1,7.9,5.4v1.7c0,1.9-5.1,15.8-6.1,18.3c-0.8,2-6.3,17-6.3,18.1c0,1.2,4,5.9,4.5,7.9c1.3-0.9,10.7-16.8,12.3-19.6
		c4.2-7.3,11.3-14.6,11.3-23.4c0-12.8-8.7-24-20.7-24h-5C256.6,7.9,247.7,17.4,247.7,29.8L247.7,29.8z"/>
	<path class="st2" d="M61.6,52.8l0,47.7h16.5c7.4,0,15.7-5.1,15.7-12v-2.9c0-5.5-3.8-10.1-8.3-11.2c0.6-2.2,5.4-3.7,5.4-7.9v-2.9
		c0-6.5-7.8-10.7-14.5-10.7l-5-0.2H61.6L61.6,52.8z"/>
	<path class="st2" d="M187.7,100.9h8.7V89.7c0-1,3.7-4,4.5-4.5l10.8,15.7l10.9-0.1l-15.5-21.4l12.4-13.2l-10.5,0.2l-12.6,13V52.9
		h-8.7V100.9L187.7,100.9z"/>
	<path class="st2" d="M105.5,66.2l0,6.9l5.4-0.8h2.5c3.6,0,6.2,2.1,6.2,5.8c-1.3-0.1-1.5-0.4-2.9-0.4h-0.4c-9,0-17.8,3.8-17.8,12.4
		c0,7.1,4.5,11.2,11.6,11.2c4.9,0,6.8-2.7,10.6-3.7l1.8,4.1h2.9c2,0,3-0.5,4.5-0.8c-6.2-11.8,5.3-35.1-15.7-35.1l-4.1-0.1
		L105.5,66.2L105.5,66.2z"/>
	<path class="st2" d="M12,66.2v7c1.1-0.5,2.5-0.8,4.1-0.8h3.7c3.5,0,6.1,2.3,6.2,5.8h-7.9C11,78.2,5,83.6,5,91.4
		c0,6.2,5.2,9.9,11.6,9.9c4.7,0,6.8-2.7,10.7-3.7c0.1,1.4,1.1,4.1,2.5,4.1h2.1c1.6,0,3.1-0.3,4.1-0.8c-0.9-3.7-1.7-5.9-1.7-10.7
		c0-3,0.3-10.2-0.1-12.7c-1.6-7.8-4.7-11.7-13.9-11.7C17.4,65.7,14.8,65.9,12,66.2L12,66.2z"/>
	<path class="st2" d="M228.7,66.2l0,6.9l5.4-0.8h3.3c2,0,5.4,2.3,5.4,4.1v1.7h-7.4c-6.5,0-13.2,4.8-13.2,11.6V93
		c0,4.7,6,8.3,11.2,8.3c2.9,0,9-0.3,9.9-3.7h0.8c0.3,1.3,1.4,4.1,2.9,4.1h1.7c2,0,3-0.5,4.5-0.8c-2.7-5.7-1.8-14.2-2.1-22.3
		c-0.3-7.1-4.8-12.8-12-12.8L228.7,66.2L228.7,66.2z"/>
	<path class="st2" d="M158,66.2v7c1.1-0.5,2.5-0.8,4.1-0.8h3.7c3.6,0,6.1,2.2,6.2,5.8c-1.7-0.1-0.9-0.4-2.5-0.4
		c-9.7,0-18.6,3.3-18.6,12.8c0,7.4,5,10.7,12.4,10.7c4.5,0,6.2-2.7,9.8-3.6l1.8,4.1h2.9c6.9,0,3-3,2.5-7.9c-0.4-3.7,0-10,0-14
		c0-8.7-4.8-14-13.7-14C163.7,65.7,160.9,65.9,158,66.2L158,66.2z"/>
	<path class="st2" d="M40.6,90.1c0,6.8,5.5,11.2,12.4,11.2h4.1v-6.2c-4.8,0-8.3-3.3-8.3-7.9V55h-8.3V90.1L40.6,90.1z"/>
	<path class="st2" d="M133.6,76.9v23.2h8.7V77.3c0-3,3.4-5.4,6.6-5.4h3.7v-5.8h-9.1C137.3,66.2,133.6,70.7,133.6,76.9L133.6,76.9z"
		/>
	<path class="st3" d="M69.9,92.6c0,1,0.3,1.2,1.2,1.2h3.3c5.9,0,10.7-1.6,10.7-7.4v-1.2c0-4.1-3.4-7-7.4-7h-7.9V92.6L69.9,92.6z"/>
	<path class="st3" d="M69.9,61.2v10.3h6.2c3.1,0,6.2-1.9,6.2-5v-2.1c0-2.8-3.4-4.5-6.2-4.5h-5C70.2,60,69.9,60.2,69.9,61.2
		L69.9,61.2z"/>
	<path class="st3" d="M230.3,89.3v2.5c0,1.5,2,2.9,3.7,2.9h3.7c3.4,0,5.4-3.8,5.4-7.4l0-2.8l-3.7-0.5h-0.8
		C234.8,83.9,230.3,85.7,230.3,89.3L230.3,89.3z"/>
	<path class="st3" d="M13.3,89.7v0.4c0,2.6,1.2,4.5,3.7,4.5h3.7c3.4,0,5.4-3.3,5.4-7l0-3.2l-3.3-0.5C18.7,83.3,13.3,86,13.3,89.7
		L13.3,89.7z"/>
	<path class="st3" d="M106.7,90.1c0,2.9,1.5,4.5,4.5,4.5h3.7c1.7,0,4.5-3.2,4.5-5.4v-5c-0.9-0.2-1-0.4-2.1-0.4h-1.7
		C111.4,83.9,106.7,85.7,106.7,90.1L106.7,90.1z"/>
	<path class="st3" d="M159.2,89.7V91c0,2,1.7,3.7,3.7,3.7h2.9c3.2,0,6.2-2.4,6.2-5.4l0-4.9l-3.3-0.5C165,83.3,159.2,85.9,159.2,89.7
		L159.2,89.7z"/>
</g>
</svg>
