<?xml version="1.0" standalone="no"?>
<!DOCTYPE svg PUBLIC "-//W3C//DTD SVG 20010904//EN"
 "http://www.w3.org/TR/2001/REC-SVG-20010904/DTD/svg10.dtd">
<svg version="1.0" xmlns="http://www.w3.org/2000/svg"
 width="1572.000000pt" height="401.000000pt" viewBox="0 0 1572.000000 401.000000"
 preserveAspectRatio="xMidYMid meet">

<g transform="translate(0.000000,401.000000) scale(0.100000,-0.100000)"
fill="#000000" stroke="none">
<path d="M13182 3434 c-40 -28 -47 -54 -52 -204 l-5 -144 -30 -7 c-16 -4 -55
-12 -85 -19 -137 -29 -257 -83 -393 -174 l-58 -40 -104 104 -104 104 -56 0
c-52 1 -59 -2 -86 -32 -57 -63 -34 -124 95 -252 47 -46 86 -88 86 -92 0 -4
-19 -38 -43 -75 -39 -62 -89 -158 -108 -208 -28 -75 -58 -195 -59 -232 0 -17
-6 -35 -12 -40 -7 -4 -82 -10 -165 -13 l-153 -5 -32 -33 c-28 -27 -33 -39 -32
-77 1 -46 18 -75 59 -98 12 -7 85 -14 175 -17 l155 -5 8 -55 c19 -136 83 -299
169 -428 26 -40 48 -75 48 -78 0 -3 -43 -51 -95 -106 -100 -106 -114 -134
-101 -202 11 -56 37 -70 125 -67 29 1 49 16 136 101 55 55 105 100 109 100 4
0 33 -18 65 -40 119 -80 259 -138 400 -165 41 -8 78 -20 83 -27 4 -7 8 -71 8
-143 0 -111 3 -135 20 -162 44 -74 141 -75 183 -3 14 22 17 55 17 162 0 73 4
138 8 145 4 6 36 16 72 23 36 6 76 15 90 19 14 5 45 15 70 22 60 17 192 83
262 130 31 22 60 39 64 39 4 0 46 -40 93 -88 101 -103 143 -123 206 -101 48
18 70 63 60 125 -5 37 -19 57 -95 136 -49 51 -90 97 -90 102 0 4 15 29 34 55
86 117 151 275 186 454 l11 57 119 0 c131 0 170 11 205 58 22 30 25 80 6 114
-24 45 -48 53 -191 58 l-134 5 -12 45 c-6 25 -19 80 -29 123 -10 43 -22 80
-27 83 -4 3 -8 12 -8 21 0 26 -69 164 -116 229 l-43 61 86 84 c81 80 122 141
123 182 0 32 -30 84 -56 96 -34 15 -79 14 -112 -3 -15 -8 -61 -49 -102 -91
-41 -42 -83 -81 -92 -86 -13 -7 -29 0 -67 28 -119 90 -280 155 -450 184 -30 4
-58 14 -63 21 -4 7 -8 75 -8 150 l0 137 -34 35 c-27 29 -41 36 -72 36 -22 0
-50 -7 -62 -16z m-32 -909 l0 -173 -36 -21 c-19 -12 -40 -21 -47 -21 -16 0
-247 231 -247 247 0 38 270 161 318 145 9 -3 12 -48 12 -177z m252 171 c132
-36 278 -112 278 -147 0 -8 -53 -68 -119 -132 l-119 -118 -48 22 c-27 12 -56
25 -64 29 -12 6 -16 37 -18 171 -1 90 0 169 2 176 7 17 23 16 88 -1z m-583
-390 c109 -109 114 -116 107 -147 -3 -18 -13 -43 -21 -56 -15 -23 -19 -23
-184 -23 -126 0 -170 3 -173 13 -3 6 2 41 11 77 28 111 99 250 129 250 10 0
69 -51 131 -114z m1033 56 c51 -82 107 -256 89 -275 -4 -4 -85 -6 -180 -5
l-173 3 -15 43 c-11 35 -12 46 -2 59 45 54 224 233 233 233 6 0 28 -26 48 -58z
m-932 -498 c11 -25 20 -51 20 -57 0 -7 -54 -66 -120 -132 -116 -116 -120 -118
-139 -101 -45 41 -131 243 -131 308 l0 28 175 0 176 0 19 -46z m1016 -1 c-13
-95 -96 -276 -134 -290 -13 -6 -222 191 -243 229 -6 11 -2 31 12 62 l20 46
176 0 176 0 -7 -47z m-380 -300 l117 -126 -29 -24 c-64 -51 -207 -108 -289
-115 l-40 -3 -3 175 -2 175 52 22 c29 11 58 21 64 22 7 1 65 -56 130 -126z
m-420 96 c12 -10 14 -44 12 -183 l-3 -171 -35 1 c-19 1 -51 6 -70 11 -48 14
-159 68 -193 96 l-28 22 118 122 c110 113 120 121 151 118 19 -2 40 -9 48 -16z"/>
<path d="M780 1791 l0 -921 360 0 c287 0 371 3 417 15 164 43 313 169 394 336
58 118 68 147 100 289 21 97 24 377 4 488 -38 215 -83 330 -178 457 -63 84
-200 182 -292 209 -33 10 -73 23 -90 29 -19 7 -158 12 -372 15 l-343 3 0 -920z
m583 464 c105 -44 178 -161 212 -344 25 -130 19 -222 -22 -356 -42 -134 -156
-241 -249 -233 l-39 3 -3 460 c-1 253 0 466 3 473 6 16 55 15 98 -3z"/>
<path d="M6380 1791 l0 -921 433 0 c412 0 437 1 498 21 109 35 210 115 254
199 46 88 56 141 55 282 0 125 -2 144 -26 203 -30 75 -100 158 -169 202 -25
15 -45 33 -45 39 0 7 22 26 50 44 91 58 131 123 150 243 14 83 5 170 -26 267
-42 127 -170 248 -329 310 -59 24 -68 24 -452 28 l-393 3 0 -920z m636 463
c27 -18 54 -73 54 -110 0 -43 -31 -104 -61 -119 -39 -21 -135 -20 -143 1 -8
20 -8 192 0 222 6 20 13 22 66 22 38 0 68 -6 84 -16z m34 -659 c44 -23 70 -70
70 -130 0 -70 -25 -115 -80 -142 -61 -30 -155 -32 -170 -4 -14 26 -13 257 1
283 10 19 17 20 79 15 38 -3 83 -13 100 -22z"/>
<path d="M10280 1785 l0 -915 230 0 230 0 0 300 c0 258 2 300 15 300 8 0 17
-12 21 -27 3 -16 19 -66 36 -113 17 -47 32 -94 35 -105 3 -11 8 -29 12 -40 14
-36 39 -108 73 -212 l33 -103 273 0 c182 0 272 3 272 10 0 6 -13 37 -29 68
-16 31 -52 104 -79 162 -27 58 -86 181 -131 274 -45 93 -84 179 -87 192 -4 17
10 50 52 121 32 54 63 107 69 118 6 11 23 39 38 62 15 24 27 45 27 48 0 3 16
31 35 61 19 30 35 56 35 59 0 2 14 26 30 52 17 26 30 53 30 60 0 10 -52 13
-254 13 -218 0 -257 -2 -270 -16 -9 -8 -16 -22 -16 -30 0 -8 -4 -22 -9 -32 -9
-17 -41 -99 -81 -207 -12 -33 -28 -73 -35 -90 -6 -16 -18 -46 -25 -65 -7 -19
-19 -50 -27 -69 -15 -32 -17 -33 -29 -16 -8 10 -16 32 -19 49 -3 17 -5 250 -3
519 l3 487 -227 0 -228 0 0 -915z"/>
<path d="M4672 2488 l3 -193 203 -3 202 -2 0 195 0 195 -205 0 -205 0 2 -192z"/>
<path d="M2570 2184 c-164 -43 -307 -170 -365 -325 -9 -24 -21 -53 -26 -64
-41 -95 -55 -369 -25 -498 48 -199 151 -341 297 -405 24 -10 58 -25 74 -32 17
-7 82 -15 146 -18 127 -5 173 4 279 56 83 41 188 150 232 242 20 41 39 92 42
113 l7 37 -218 0 -218 0 -14 -32 c-19 -43 -58 -78 -87 -78 -33 0 -82 46 -93
88 -6 20 -11 60 -13 87 l-3 50 326 3 c272 2 329 5 339 17 9 11 9 39 1 122 -25
238 -85 378 -213 503 -123 121 -313 175 -468 134z m177 -356 c22 -18 53 -87
53 -120 l0 -27 -92 -3 c-51 -2 -99 -2 -105 0 -33 10 -2 127 41 158 24 17 78
13 103 -8z"/>
<path d="M4070 2183 c-25 -9 -59 -26 -76 -39 -33 -24 -124 -145 -124 -163 0
-6 -7 -11 -16 -11 -15 0 -16 11 -9 100 l7 100 -221 0 -221 0 0 -650 0 -650
225 2 225 3 3 365 c2 330 4 368 20 398 25 46 59 60 92 38 47 -31 49 -48 53
-439 l3 -367 225 2 225 3 -1 445 c-1 512 -9 593 -75 718 -68 130 -206 189
-335 145z"/>
<path d="M8036 2183 c-201 -61 -316 -303 -316 -663 0 -176 29 -324 90 -452 31
-68 109 -159 164 -193 66 -40 179 -48 247 -17 43 20 159 130 159 151 0 6 7 11
16 11 14 0 16 -11 13 -72 l-4 -73 240 0 240 0 3 625 c1 344 0 635 -3 648 l-5
22 -235 0 c-265 0 -239 10 -235 -87 2 -65 -15 -70 -48 -13 -39 69 -154 131
-241 129 -20 0 -58 -7 -85 -16z m276 -413 c30 -14 63 -65 84 -129 21 -67 16
-246 -10 -306 -57 -134 -151 -105 -202 63 -17 57 -18 182 -3 231 21 64 57 126
81 138 28 15 22 15 50 3z"/>
<path d="M9720 2182 c-50 -19 -143 -107 -175 -166 -35 -64 -47 -48 -43 57 l3
92 -237 3 -238 2 0 -650 0 -650 250 0 250 0 0 376 c0 361 1 377 20 404 25 35
52 45 80 30 47 -25 50 -55 50 -445 l0 -365 228 2 227 3 0 475 c0 524 -1 536
-67 677 -64 138 -214 205 -348 155z"/>
<path d="M4657 2163 c-4 -3 -7 -296 -7 -650 l0 -643 230 0 230 0 0 634 c0 349
-3 641 -6 650 -5 14 -35 16 -223 16 -120 0 -221 -3 -224 -7z"/>
<path d="M5254 2157 c-2 -7 -3 -98 -2 -202 l3 -190 160 0 c122 0 159 -3 158
-12 -2 -7 -18 -45 -37 -85 -18 -40 -44 -95 -56 -123 -13 -27 -35 -77 -50 -110
-16 -33 -37 -80 -48 -105 -11 -25 -44 -94 -72 -155 -29 -60 -59 -128 -68 -150
-8 -22 -19 -44 -23 -50 -4 -5 -9 -30 -10 -55 l-4 -45 498 -3 497 -2 0 199 c0
172 -2 200 -16 205 -23 9 -232 7 -282 -3 -25 -5 -45 -5 -48 1 -5 8 17 75 52
155 8 17 14 34 14 38 0 3 50 108 111 233 62 125 132 268 156 318 29 60 43 101
41 120 l-3 29 -483 3 c-387 2 -484 0 -488 -11z"/>
</g>
</svg>
