<?xml version="1.0" standalone="no"?>
<!DOCTYPE svg PUBLIC "-//W3C//DTD SVG 20010904//EN"
 "http://www.w3.org/TR/2001/REC-SVG-20010904/DTD/svg10.dtd">
<svg version="1.0" xmlns="http://www.w3.org/2000/svg"
 width="1572.000000pt" height="401.000000pt" viewBox="0 0 1572.000000 401.000000"
 preserveAspectRatio="xMidYMid meet">

<g transform="translate(0.000000,401.000000) scale(0.100000,-0.100000)"
fill="#000000" stroke="none">
<path d="M1223 3229 c-34 -10 -106 -85 -128 -133 -29 -66 -28 -72 12 -97 62
-38 223 -172 293 -243 35 -36 68 -66 72 -66 4 0 8 8 8 19 0 10 6 24 14 30 8 7
17 22 20 35 3 13 14 26 23 30 22 8 56 28 77 45 14 12 16 10 16 -12 0 -14 5
-29 10 -32 6 -4 10 6 10 24 0 16 -4 33 -10 36 -5 3 -10 15 -10 26 0 26 -44
121 -82 177 -39 57 -71 88 -133 127 -57 37 -137 51 -192 34z"/>
<path d="M2044 3014 c-12 -3 -35 -19 -52 -37 -71 -75 -93 -161 -48 -190 12 -9
31 -32 40 -52 10 -19 26 -41 37 -48 10 -6 19 -18 19 -26 0 -8 12 -39 26 -69
18 -39 23 -57 15 -65 -13 -13 -15 -47 -2 -47 5 0 11 8 15 18 3 9 19 40 36 67
17 28 33 57 36 65 4 8 12 29 19 45 7 17 20 52 30 80 47 141 -48 285 -171 259z"/>
<path d="M925 2911 c-61 -35 -119 -92 -148 -146 -18 -33 -22 -56 -22 -135 0
-84 3 -102 28 -152 75 -153 232 -262 472 -328 47 -12 119 0 78 14 -21 7 -29
25 -23 51 1 6 4 35 7 65 2 30 10 71 18 91 7 20 21 65 30 100 9 35 24 72 32 81
14 16 12 22 -21 66 -39 53 -157 169 -221 217 -22 16 -42 32 -45 35 -14 16
-109 70 -121 70 -8 0 -37 -13 -64 -29z"/>
<path d="M14104 2932 c-6 -4 -41 -65 -79 -137 -37 -71 -71 -134 -75 -140 -4
-5 -33 -59 -65 -120 -32 -60 -71 -135 -88 -165 -41 -76 -94 -176 -157 -295
-55 -104 -100 -188 -142 -265 -14 -25 -48 -89 -76 -142 -29 -54 -57 -106 -63
-116 -7 -11 -9 -27 -6 -36 5 -14 25 -16 131 -16 l124 0 20 33 c22 37 69 124
173 322 101 194 136 260 173 330 18 33 51 97 74 142 50 95 67 113 86 92 8 -8
46 -77 86 -154 40 -77 89 -171 110 -210 20 -38 64 -122 98 -185 33 -63 81
-155 107 -205 27 -49 54 -102 62 -116 24 -47 33 -50 164 -47 120 3 124 4 127
26 2 12 -1 22 -6 22 -5 0 -27 35 -50 78 -22 42 -53 102 -69 132 -17 30 -56
105 -88 165 -32 61 -61 115 -65 120 -4 6 -37 68 -74 138 -37 71 -76 144 -87
164 -11 19 -40 74 -66 121 -25 48 -62 116 -81 152 -20 36 -63 118 -97 184 -60
116 -81 142 -101 128z"/>
<path d="M3253 2802 c-45 -9 -85 -20 -89 -24 -4 -5 -15 -8 -25 -8 -9 0 -54
-19 -99 -41 -104 -52 -246 -188 -308 -294 -86 -147 -126 -350 -103 -517 12
-88 35 -184 51 -218 65 -132 97 -178 170 -248 62 -60 188 -132 270 -154 219
-59 497 -46 725 35 61 21 70 27 69 48 -10 155 -13 468 -7 557 7 99 6 115 -7
122 -9 5 -116 12 -237 16 l-221 7 5 -69 c8 -103 9 -104 106 -104 51 0 88 -5
95 -12 9 -9 12 -70 12 -215 l0 -202 -27 -14 c-52 -27 -182 -40 -264 -28 -130
20 -207 57 -290 140 -104 104 -169 283 -169 462 0 249 149 481 360 560 108 40
313 38 460 -6 100 -29 99 -29 104 -4 2 13 9 48 15 77 18 87 18 88 -46 107 -32
9 -71 22 -88 27 -16 6 -109 12 -205 14 -137 3 -193 0 -257 -14z"/>
<path d="M1900 2768 c0 -36 4 -35 14 5 4 16 2 27 -4 27 -5 0 -10 -14 -10 -32z"/>
<path d="M2287 2724 c-4 -4 -7 -16 -7 -26 0 -10 -4 -26 -10 -36 -5 -9 -16 -35
-26 -57 -28 -69 -89 -190 -96 -193 -5 -2 -8 -9 -8 -15 0 -6 -8 -19 -17 -29
-16 -18 -16 -19 4 -24 16 -5 22 -16 26 -52 3 -27 1 -50 -5 -53 -6 -4 -7 -12
-3 -19 5 -8 21 2 52 32 118 114 183 278 152 383 -15 50 -50 101 -62 89z"/>
<path d="M8590 2712 c-37 -18 -80 -82 -80 -120 0 -34 36 -98 69 -121 45 -33
117 -29 162 8 39 32 65 95 56 133 -26 97 -121 144 -207 100z"/>
<path d="M9422 2722 c-10 -7 -13 -148 -12 -708 0 -652 1 -700 18 -712 14 -11
93 -13 417 -9 369 4 405 6 468 25 148 45 220 100 271 207 28 56 30 68 30 185
1 108 -2 131 -21 172 -32 69 -68 113 -124 148 -27 18 -49 35 -49 39 0 3 18 23
40 43 86 81 119 211 86 336 -27 98 -100 191 -181 227 -119 52 -93 49 -525 53
-223 1 -411 -1 -418 -6z m782 -214 c46 -13 81 -40 102 -80 18 -35 18 -116 0
-159 -17 -41 -71 -94 -109 -108 -30 -12 -513 -16 -541 -5 -14 5 -16 30 -16
173 0 117 4 171 12 179 17 17 494 17 552 0z m28 -584 c126 -36 181 -135 147
-267 -6 -23 -18 -51 -28 -63 -27 -34 -92 -69 -149 -82 -74 -17 -533 -17 -550
0 -9 9 -12 69 -12 208 0 139 3 199 12 208 20 20 506 16 580 -4z"/>
<path d="M10903 2723 c-10 -4 -13 -155 -13 -708 l0 -704 22 -12 c15 -8 130
-10 422 -7 338 4 409 8 451 22 28 9 66 21 85 27 50 16 134 82 168 131 47 70
62 129 62 249 0 94 -3 116 -26 166 -29 66 -82 126 -136 154 -21 11 -38 23 -38
27 0 4 16 19 35 35 80 63 124 203 100 316 -26 125 -90 209 -202 262 -35 17
-92 35 -126 40 -64 9 -782 11 -804 2z m785 -218 c94 -28 136 -103 113 -198
-16 -62 -49 -109 -93 -134 -29 -15 -65 -18 -305 -21 -220 -3 -273 -1 -274 10
-3 79 2 341 6 348 4 6 108 10 254 10 193 0 259 -3 299 -15z m30 -581 c83 -24
138 -83 147 -158 9 -73 0 -122 -33 -169 -55 -82 -125 -97 -437 -97 -208 0
-246 2 -259 16 -13 13 -16 46 -16 200 0 109 4 193 10 205 10 18 24 19 271 19
211 0 272 -3 317 -16z"/>
<path d="M12137 2723 c-10 -9 -9 -47 2 -58 5 -6 39 -68 76 -140 37 -71 71
-134 75 -140 4 -5 36 -64 70 -130 35 -66 74 -140 88 -165 13 -25 43 -79 65
-120 22 -41 70 -131 107 -200 37 -69 94 -177 128 -240 33 -63 74 -140 90 -170
43 -80 61 -78 110 12 64 118 167 310 234 438 25 47 57 105 70 130 14 25 49 90
78 145 29 55 69 129 88 165 19 36 57 108 84 160 28 52 54 100 58 105 4 6 29
52 56 103 40 77 45 95 33 103 -16 10 -218 13 -243 3 -17 -6 -42 -48 -131 -219
-32 -60 -83 -157 -113 -215 -30 -58 -84 -161 -120 -230 -133 -254 -128 -245
-152 -245 -18 0 -30 15 -60 70 -20 39 -61 117 -92 175 -63 119 -129 245 -213
405 -103 197 -127 240 -143 253 -17 13 -233 18 -245 5z"/>
<path d="M1480 2670 c0 -5 5 -10 11 -10 5 0 7 5 4 10 -3 6 -8 10 -11 10 -2 0
-4 -4 -4 -10z"/>
<path d="M1505 2640 c3 -5 8 -10 11 -10 2 0 4 5 4 10 0 6 -5 10 -11 10 -5 0
-7 -4 -4 -10z"/>
<path d="M7980 2602 c-46 -1 -89 -7 -95 -12 -7 -6 -15 -58 -19 -122 -7 -130
-13 -138 -87 -138 -75 0 -79 -3 -79 -76 0 -44 4 -64 13 -65 6 0 39 -1 72 -2
l60 -2 6 -330 c8 -443 18 -483 134 -551 47 -26 57 -28 155 -28 111 0 186 16
249 55 33 20 33 20 26 77 -4 31 -10 61 -14 65 -5 4 -28 0 -52 -9 -26 -11 -71
-18 -112 -18 -65 -1 -70 1 -97 31 -47 52 -51 86 -48 410 l3 298 130 2 130 1 0
74 0 73 -130 5 -130 5 -5 129 c-3 75 -9 130 -15 131 -5 0 -48 -1 -95 -3z"/>
<path d="M1410 2550 c0 -5 5 -10 10 -10 6 0 10 5 10 10 0 6 -4 10 -10 10 -5 0
-10 -4 -10 -10z"/>
<path d="M5551 2358 c-55 -12 -107 -45 -149 -92 -33 -38 -52 -40 -52 -5 0 34
-29 78 -56 85 -40 10 -105 -1 -162 -27 -55 -25 -60 -33 -38 -64 32 -47 37
-125 35 -545 l-2 -415 121 -3 122 -3 0 387 -1 387 33 34 c45 46 112 77 182 83
l60 5 12 60 c27 128 16 140 -105 113z"/>
<path d="M7190 2355 c-78 -18 -105 -30 -177 -80 -35 -25 -68 -45 -72 -45 -5 0
-11 17 -15 38 -8 51 -44 84 -91 84 -37 0 -67 -9 -142 -44 l-41 -19 24 -44 25
-43 -1 -456 0 -457 122 3 122 3 -3 381 c-3 426 -9 387 72 443 140 95 267 87
303 -19 4 -14 11 -200 14 -415 l5 -390 120 0 120 0 -3 90 c-2 50 -4 241 -5
425 -2 296 -5 341 -21 385 -33 90 -102 145 -207 164 -76 13 -77 13 -149 -4z"/>
<path d="M4365 2354 c-46 -8 -127 -33 -154 -48 -19 -11 -28 -28 -38 -77 -7
-35 -9 -67 -5 -71 4 -4 19 -2 32 5 95 49 300 68 376 34 57 -26 94 -106 94
-204 0 -65 -5 -72 -48 -62 -65 15 -235 11 -293 -8 -122 -38 -192 -94 -238
-187 -28 -58 -31 -72 -31 -159 0 -99 16 -156 57 -202 122 -137 374 -145 516
-16 24 22 29 23 37 11 5 -8 10 -25 10 -36 0 -38 21 -45 130 -42 l102 3 -1 353
c-2 364 -12 487 -45 550 -29 57 -80 105 -136 130 -48 21 -72 25 -195 27 -77 2
-153 1 -170 -1z m292 -560 c21 -28 18 -267 -3 -289 -23 -23 -61 -41 -128 -60
-82 -24 -152 -9 -195 41 -28 31 -31 41 -31 100 0 107 51 177 157 217 63 23
180 18 200 -9z"/>
<path d="M5945 2354 c-49 -8 -165 -46 -172 -57 -12 -20 -30 -126 -23 -137 6
-9 13 -9 28 -1 70 38 235 67 316 56 100 -13 140 -64 152 -192 8 -88 -1 -106
-49 -92 -52 15 -231 11 -284 -7 -130 -42 -225 -127 -257 -228 -28 -87 -19
-214 18 -283 41 -75 117 -124 212 -139 130 -19 213 -1 316 72 50 35 58 35 58
-6 0 -44 15 -50 133 -50 l110 0 -8 53 c-4 28 -10 221 -14 427 -8 417 -7 413
-79 492 -20 23 -62 52 -92 66 -49 22 -71 25 -195 27 -77 2 -153 1 -170 -1z
m290 -554 c12 -10 15 -40 15 -146 0 -146 -1 -149 -69 -183 -66 -34 -139 -43
-198 -26 -85 25 -119 88 -101 186 16 88 83 154 183 180 42 11 152 4 170 -11z"/>
<path d="M8655 2353 c-11 -2 -50 -16 -87 -31 -63 -25 -81 -43 -59 -57 5 -3 17
-27 26 -54 13 -42 16 -105 15 -440 0 -215 -3 -411 -7 -436 l-6 -45 129 0 129
0 -2 432 c-3 514 -7 570 -36 602 -22 24 -65 36 -102 29z"/>
<path d="M2120 2199 c0 -5 5 -7 10 -4 6 3 10 8 10 11 0 2 -4 4 -10 4 -5 0 -10
-5 -10 -11z"/>
<path d="M1345 1940 c-3 -5 1 -10 9 -10 9 0 16 5 16 10 0 6 -4 10 -9 10 -6 0
-13 -4 -16 -10z"/>
<path d="M1260 1918 c-236 -102 -395 -219 -459 -339 -10 -19 -24 -57 -31 -86
-27 -104 32 -229 150 -319 30 -23 64 -45 76 -48 39 -12 244 173 360 324 64 84
78 110 64 124 -7 7 -10 5 -11 -4 0 -18 -49 129 -49 148 0 7 -5 10 -11 6 -7 -4
-9 0 -5 13 4 11 -1 51 -9 88 -9 37 -14 74 -11 81 3 7 -2 15 -10 18 -20 8 -23
7 -54 -6z"/>
<path d="M2118 1913 c7 -3 16 -2 19 1 4 3 -2 6 -13 5 -11 0 -14 -3 -6 -6z"/>
<path d="M2144 1858 c1 -24 -3 -44 -8 -45 -18 -3 -25 -28 -13 -43 7 -8 18 -26
24 -40 6 -14 23 -52 38 -85 39 -87 41 -92 71 -180 14 -44 28 -82 30 -84 4 -4
47 91 62 140 40 122 -38 293 -166 367 -34 19 -38 15 -38 -30z"/>
<path d="M2071 1598 c1 -32 -6 -56 -27 -91 -16 -27 -34 -57 -40 -68 -18 -31
-46 -59 -55 -54 -4 3 -12 -2 -18 -12 -8 -15 -11 -12 -19 17 l-10 35 -1 -37
c-1 -21 4 -38 9 -38 6 0 10 -16 10 -35 0 -73 65 -150 136 -161 68 -10 110 15
140 82 25 56 25 57 8 108 -9 28 -20 60 -25 71 -4 11 -15 42 -25 68 -9 26 -21
50 -25 53 -5 3 -9 13 -9 23 0 10 -7 24 -15 31 -8 7 -15 21 -15 31 0 11 -5 19
-10 19 -6 0 -10 -18 -9 -42z"/>
<path d="M1497 1450 c-9 -11 -17 -22 -17 -24 0 -16 -263 -284 -338 -346 -49
-39 -52 -45 -46 -74 8 -40 53 -112 96 -153 54 -53 111 -65 193 -42 51 14 161
125 194 194 34 72 71 176 71 200 0 12 5 26 11 32 5 5 9 30 7 54 -4 42 -4 43
-15 19 -7 -14 -12 -19 -12 -12 -1 6 -12 12 -26 12 -14 0 -25 5 -25 10 0 6 -11
15 -25 20 -14 5 -30 21 -37 35 -6 14 -15 25 -20 25 -12 0 -10 38 4 42 6 2 9
10 7 16 -3 8 -10 6 -22 -8z"/>
<path d="M1686 1381 c-4 -7 -5 -15 -2 -18 9 -9 19 4 14 18 -4 11 -6 11 -12 0z"/>
</g>
</svg>
