<?xml version="1.0" standalone="no"?>
<!DOCTYPE svg PUBLIC "-//W3C//DTD SVG 20010904//EN"
 "http://www.w3.org/TR/2001/REC-SVG-20010904/DTD/svg10.dtd">
<svg version="1.0" xmlns="http://www.w3.org/2000/svg"
 width="1572.000000pt" height="401.000000pt" viewBox="0 0 1572.000000 401.000000"
 preserveAspectRatio="xMidYMid meet">

<g transform="translate(0.000000,401.000000) scale(0.100000,-0.100000)"
fill="#000000" stroke="none">
<path d="M7732 3739 c-131 -65 -131 -254 0 -318 54 -26 100 -26 154 -2 90 41
130 151 86 237 -24 48 -47 69 -95 89 -50 21 -94 19 -145 -6z"/>
<path d="M7520 3252 c0 -13 12 -22 39 -31 22 -6 51 -25 65 -42 l26 -31 0 -416
0 -417 155 -87 c85 -49 160 -88 165 -88 6 0 10 181 10 509 l0 509 26 31 c15
18 39 33 60 37 24 4 34 12 34 25 0 18 -12 19 -290 19 -275 0 -290 -1 -290 -18z"/>
<path d="M7503 3001 c-76 -28 -144 -67 -201 -117 -231 -202 -236 -569 -11
-793 69 -69 86 -80 414 -261 171 -95 347 -196 392 -226 94 -62 162 -135 201
-214 24 -48 27 -67 27 -150 0 -86 -3 -101 -32 -162 -58 -123 -157 -201 -291
-229 -143 -29 -354 8 -483 86 -134 82 -255 240 -305 398 -15 50 -21 57 -43 57
l-26 0 3 -290 c2 -267 4 -290 20 -290 9 0 29 16 45 35 32 40 91 60 146 50 20
-4 114 -33 209 -65 l173 -57 -34 -20 c-43 -26 -67 -77 -67 -145 0 -101 63
-162 160 -155 30 2 63 8 73 12 14 6 17 2 17 -22 0 -32 -29 -91 -71 -144 -36
-45 -36 -49 -2 -49 39 0 129 97 172 183 60 125 51 242 -25 305 l-34 28 93 17
c366 69 585 383 512 732 -24 112 -76 207 -164 295 -99 100 -116 111 -497 321
-179 98 -352 200 -385 226 -110 86 -168 187 -169 293 0 86 30 150 99 212 47
43 138 88 176 88 10 0 15 11 15 35 0 32 -3 35 -27 35 -16 -1 -51 -9 -80 -19z"/>
<path d="M8020 2952 c0 -32 5 -40 38 -59 139 -79 244 -239 268 -406 6 -42 9
-48 28 -45 21 3 21 6 24 276 2 262 2 272 -17 272 -10 0 -35 -16 -55 -36 -35
-35 -39 -36 -94 -32 -36 2 -82 15 -125 35 l-67 32 0 -37z"/>
<path d="M2194 2632 c-62 -50 -56 -150 11 -180 79 -36 155 9 155 93 0 65 -39
105 -102 105 -26 0 -52 -7 -64 -18z"/>
<path d="M2494 2632 c-55 -44 -59 -109 -10 -158 58 -58 141 -42 173 33 18 43
4 93 -34 123 -32 25 -100 26 -129 2z"/>
<path d="M4901 2634 c-31 -22 -52 -75 -45 -114 15 -75 123 -108 177 -54 33 33
41 57 33 99 -14 70 -107 109 -165 69z"/>
<path d="M13593 2389 c-107 -21 -189 -75 -227 -151 -44 -87 -31 -174 35 -238
48 -46 114 -73 263 -106 126 -28 186 -57 200 -97 12 -32 3 -51 -38 -81 -21
-16 -46 -22 -110 -24 -99 -5 -148 8 -216 53 -29 19 -53 35 -55 35 -10 0 -130
-104 -130 -113 0 -19 122 -93 192 -116 125 -42 293 -37 403 10 57 24 113 80
136 134 24 57 22 150 -5 202 -40 79 -110 114 -324 162 -146 33 -169 47 -165
100 4 53 49 74 148 68 72 -4 128 -24 191 -69 14 -10 28 -2 83 47 64 56 66 58
49 77 -27 30 -172 95 -237 107 -68 13 -132 13 -193 0z"/>
<path d="M4281 2210 c-91 -96 -169 -176 -173 -178 -5 -2 -8 75 -8 172 l0 176
-95 0 -95 0 0 -420 0 -420 95 0 95 0 0 123 0 122 79 79 79 79 88 -134 c48 -74
107 -164 130 -201 l44 -68 116 0 116 0 -14 23 c-8 12 -88 136 -177 275 l-162
253 133 140 c73 78 134 144 136 147 1 4 -48 7 -109 7 l-112 0 -166 -175z"/>
<path d="M6147 2383 c-4 -3 -7 -195 -7 -425 l0 -418 350 0 350 0 0 80 0 80
-250 0 -250 0 0 105 0 105 140 0 141 0 -3 78 -3 77 -137 3 -138 3 0 74 0 75
240 0 240 0 0 85 0 85 -333 0 c-184 0 -337 -3 -340 -7z"/>
<path d="M10650 1960 l0 -430 95 0 95 0 2 273 3 272 205 -267 205 -267 93 -1
92 0 0 420 0 420 -100 0 -100 0 -2 -266 -3 -266 -200 265 c-110 147 -209 268
-220 271 -11 3 -53 6 -92 6 l-73 0 0 -430z"/>
<path d="M11713 2382 l-93 -3 0 -419 0 -420 95 0 95 0 0 123 0 122 79 79 79
79 78 -119 c42 -65 101 -156 131 -202 l53 -82 181 2 181 3 36 88 35 87 181 0
181 0 35 -88 35 -87 109 -3 c85 -2 107 0 103 10 -3 7 -85 196 -182 421 l-178
407 -96 0 -97 0 -164 -372 c-90 -205 -166 -376 -170 -381 -3 -4 -64 82 -135
190 -71 109 -140 215 -154 236 l-24 38 144 145 144 144 -120 0 -120 -1 -165
-179 c-91 -98 -168 -179 -172 -179 -4 -1 -9 81 -10 182 l-3 182 -92 -3z m1190
-347 c25 -66 49 -128 53 -137 6 -17 -4 -18 -111 -18 -64 0 -115 3 -113 8 2 4
27 69 57 145 30 76 57 134 61 130 4 -4 28 -62 53 -128z"/>
<path d="M1130 2295 l0 -85 140 0 140 0 0 -335 0 -335 100 0 100 0 0 335 0
335 140 0 140 0 0 85 0 85 -380 0 -380 0 0 -85z"/>
<path d="M2012 2088 l3 -293 29 -63 c41 -90 116 -155 207 -183 58 -17 89 -21
182 -18 98 4 119 8 169 32 71 35 139 109 170 185 21 54 23 73 26 345 l3 287
-98 0 -98 0 3 -237 c2 -143 -2 -257 -8 -288 -23 -106 -92 -165 -194 -165 -92
0 -143 30 -177 105 -17 36 -19 69 -19 313 l0 272 -101 0 -100 0 3 -292z"/>
<path d="M2970 1960 l0 -420 95 0 95 0 0 150 0 151 102 -3 103 -3 85 -147 85
-148 112 0 111 0 -89 154 c-49 85 -89 158 -89 163 0 4 21 19 47 33 127 67 166
233 87 368 -28 47 -95 96 -154 112 -19 5 -160 10 -312 10 l-278 0 0 -420z
m520 254 c91 -37 95 -166 6 -208 -27 -13 -66 -16 -185 -16 l-151 0 0 120 0
120 145 0 c110 0 154 -4 185 -16z"/>
<path d="M4860 1960 l0 -420 100 0 100 0 0 420 0 420 -100 0 -100 0 0 -420z"/>
<path d="M5150 2375 c0 -2 81 -116 180 -252 l180 -248 0 -167 0 -168 95 0 95
0 0 165 0 166 178 242 c98 133 181 248 186 255 5 9 -17 12 -103 12 l-110 0
-87 -127 c-48 -71 -103 -150 -122 -176 l-35 -48 -116 175 -116 176 -112 0
c-62 0 -113 -2 -113 -5z"/>
<path d="M8810 1961 l0 -421 268 0 c298 0 333 5 419 63 65 44 103 117 103 201
0 77 -22 121 -82 162 l-45 30 38 36 c28 27 40 50 49 89 23 102 -21 185 -122
230 -51 23 -63 24 -340 27 l-288 3 0 -420z m524 258 c49 -23 57 -97 14 -136
-17 -16 -42 -18 -184 -21 l-164 -3 0 85 0 86 155 0 c93 0 164 -4 179 -11z m6
-314 c41 -21 60 -53 60 -103 0 -34 -6 -49 -28 -72 -36 -35 -78 -42 -242 -38
l-125 3 -3 113 -3 112 156 0 c119 0 163 -4 185 -15z"/>
<path d="M9922 2198 c-45 -101 -128 -290 -186 -421 l-104 -238 105 3 105 3 37
88 36 89 175 -2 c96 0 178 -4 182 -8 4 -4 22 -43 40 -87 l34 -80 108 -3 c99
-2 107 -1 102 15 -3 10 -84 198 -180 418 l-175 400 -99 3 -100 3 -80 -183z
m236 -166 c29 -74 52 -138 52 -143 0 -5 -52 -9 -115 -9 -70 0 -115 4 -115 10
0 23 113 291 120 283 4 -4 30 -68 58 -141z"/>
<path d="M14220 1960 l0 -420 95 0 95 0 0 420 0 420 -95 0 -95 0 0 -420z"/>
<path d="M7650 1506 c0 -291 0 -295 -22 -321 -13 -14 -41 -32 -63 -39 -31 -11
-40 -19 -40 -38 l0 -23 288 -3 287 -2 0 23 c0 18 -9 26 -42 37 -78 28 -83 42
-86 279 l-3 208 -154 86 c-84 48 -156 87 -159 87 -3 0 -6 -132 -6 -294z"/>
</g>
</svg>
