<?xml version="1.0" standalone="no"?>
<!DOCTYPE svg PUBLIC "-//W3C//DTD SVG 20010904//EN"
 "http://www.w3.org/TR/2001/REC-SVG-20010904/DTD/svg10.dtd">
<svg version="1.0" xmlns="http://www.w3.org/2000/svg"
 width="1572.000000pt" height="401.000000pt" viewBox="0 0 1572.000000 401.000000"
 preserveAspectRatio="xMidYMid meet">

<g transform="translate(0.000000,401.000000) scale(0.100000,-0.100000)"
fill="#000000" stroke="none">
<path d="M3688 3633 l-28 -4 0 -382 0 -382 -294 294 -294 294 -62 -38 c-73
-44 -215 -148 -225 -165 -10 -16 883 -911 945 -948 55 -33 144 -36 200 -8 33
17 960 932 960 948 0 17 -270 208 -294 208 -2 0 -135 -131 -295 -291 l-291
-290 0 376 0 375 -26 10 c-24 10 -239 11 -296 3z"/>
<path d="M6790 3578 c-19 -5 -53 -14 -75 -20 -87 -23 -213 -86 -300 -151 -140
-104 -257 -283 -303 -462 -6 -22 -15 -59 -21 -81 -16 -60 -14 -277 4 -359 8
-38 17 -83 21 -100 12 -60 113 -251 167 -315 51 -62 176 -170 196 -170 5 0 11
-3 13 -8 6 -14 123 -70 183 -86 33 -10 78 -23 100 -29 61 -18 347 -14 415 6
30 9 73 21 95 28 22 6 57 20 77 30 21 11 45 19 54 19 9 0 42 -24 73 -52 102
-94 226 -105 330 -30 l33 25 -112 112 -113 113 52 69 c53 70 106 172 135 255
62 185 62 439 0 626 -76 226 -249 420 -459 512 -72 31 -85 37 -130 48 -22 6
-57 15 -77 20 -47 13 -312 13 -358 0z m371 -253 c169 -57 304 -201 367 -391
35 -108 47 -230 33 -336 -18 -138 -87 -320 -128 -335 -9 -4 -49 29 -106 85
-104 101 -143 122 -231 122 -66 -1 -171 -36 -171 -57 0 -7 67 -79 148 -162
100 -100 148 -155 145 -167 -4 -22 -83 -50 -181 -65 -97 -14 -232 8 -326 54
-133 65 -254 215 -300 372 -94 325 6 662 245 820 138 92 338 116 505 60z"/>
<path d="M8110 2690 l0 -860 140 0 140 0 0 640 c0 352 4 640 8 640 4 0 39 -41
77 -91 39 -50 75 -96 80 -103 6 -6 24 -29 40 -51 16 -22 42 -56 58 -75 15 -19
31 -39 35 -45 4 -5 98 -127 209 -270 195 -252 265 -344 377 -490 109 -143 132
-155 282 -155 l104 0 0 860 0 861 -137 -3 -138 -3 -3 -612 c-2 -481 -5 -613
-15 -612 -6 0 -65 71 -129 157 -108 146 -276 366 -423 557 -33 44 -112 148
-174 230 -129 171 -162 207 -211 238 -60 38 -101 47 -212 47 l-108 0 0 -860z"/>
<path d="M9967 3543 c-4 -3 -7 -390 -7 -860 l0 -853 508 0 c573 0 628 5 762
68 165 78 270 238 270 412 0 93 -37 198 -92 262 -27 31 -136 102 -184 120 -41
15 -44 35 -6 49 15 5 49 31 75 57 83 80 117 168 117 303 0 89 -8 125 -42 196
-60 124 -188 205 -378 239 -56 10 -195 14 -546 14 -259 0 -474 -3 -477 -7z
m988 -248 c116 -31 169 -100 170 -221 0 -80 -12 -110 -64 -167 -33 -35 -49
-45 -116 -73 -11 -5 -148 -11 -305 -14 l-285 -5 3 -40 c5 -52 32 -115 66 -148
52 -52 80 -57 310 -57 260 0 314 -13 406 -96 54 -49 70 -86 70 -159 0 -101
-58 -174 -173 -216 -47 -18 -83 -19 -407 -19 -195 0 -363 0 -372 0 -17 0 -18
36 -18 615 l0 615 328 0 c263 0 339 -3 387 -15z"/>
<path d="M2567 3028 c-38 -47 -123 -174 -153 -227 l-19 -33 293 -287 c161
-157 292 -289 292 -293 0 -3 -169 -4 -375 -1 -362 6 -375 5 -382 -13 -10 -24
-11 -293 -1 -316 7 -17 34 -18 378 -18 203 0 370 -3 370 -6 0 -4 -126 -131
-280 -284 -154 -152 -280 -284 -280 -292 0 -31 180 -288 201 -288 13 0 922
918 939 948 23 43 18 142 -11 196 -16 30 -179 202 -477 501 -250 250 -455 455
-457 455 -2 0 -19 -19 -38 -42z"/>
<path d="M4593 2608 c-253 -255 -469 -478 -478 -497 -17 -35 -17 -51 3 -162 5
-25 18 -59 30 -75 11 -16 219 -227 462 -469 l441 -440 36 40 c34 38 173 243
173 255 0 3 -128 134 -285 290 -157 157 -285 287 -285 290 0 3 165 4 367 2
245 -2 370 1 377 8 16 16 21 306 6 325 -11 13 -66 15 -384 15 l-371 0 293 293
293 293 -66 102 c-64 103 -132 192 -144 192 -3 0 -214 -208 -468 -462z"/>
<path d="M3770 1748 c-41 -9 -69 -34 -295 -258 -137 -136 -348 -344 -467 -462
-120 -118 -218 -222 -218 -230 0 -18 96 -92 213 -164 l78 -48 282 282 c155
155 285 282 289 282 4 0 9 -165 10 -367 l3 -368 164 -3 c125 -2 166 1 173 10
4 7 8 173 8 368 0 195 0 359 0 365 0 5 128 -118 285 -275 l284 -284 37 17 c49
24 191 118 234 156 l35 31 -444 440 c-244 242 -468 456 -496 475 -59 39 -109
48 -175 33z"/>
<path d="M6150 895 l0 -535 90 0 90 0 0 230 0 230 218 2 217 3 3 72 3 73 -218
2 -218 3 0 150 0 150 326 5 c366 6 358 4 379 79 21 78 63 71 -440 71 l-450 0
0 -535z"/>
<path d="M9800 1191 c-181 -39 -263 -232 -154 -359 40 -47 98 -77 249 -128
102 -34 145 -72 145 -127 0 -32 -7 -46 -35 -73 -66 -62 -206 -56 -307 13 l-52
36 -44 -49 -43 -49 31 -26 c30 -25 79 -52 144 -78 17 -7 77 -12 136 -12 97 0
113 2 171 29 66 31 95 56 122 107 29 54 37 103 25 160 -19 97 -73 139 -261
204 -49 17 -104 40 -123 52 -65 40 -72 90 -20 146 31 34 38 37 100 41 75 5
145 -14 207 -55 49 -32 69 -20 69 41 0 50 -19 71 -94 105 -54 25 -200 37 -266
22z"/>
<path d="M6909 1169 c-6 -4 -9 -143 -7 -362 3 -342 4 -357 24 -384 22 -29 77
-62 107 -63 16 0 17 24 15 408 l-3 407 -63 0 c-35 0 -68 -3 -73 -6z"/>
<path d="M7180 771 l0 -411 70 0 70 0 0 300 c0 176 4 300 9 300 5 0 20 -17 32
-37 13 -21 26 -40 29 -43 3 -3 33 -45 65 -95 179 -275 259 -392 278 -407 15
-12 40 -18 80 -18 l57 0 -2 407 -3 408 -62 3 -63 2 0 -273 c0 -151 -3 -277 -6
-280 -9 -8 -44 11 -44 24 0 5 -34 63 -76 127 -42 64 -111 172 -154 239 -44 67
-91 130 -105 139 -16 11 -54 19 -101 22 l-74 5 0 -412z"/>
<path d="M8249 1153 c-6 -15 -15 -37 -19 -48 -4 -11 -12 -32 -19 -47 -6 -16
-15 -38 -20 -50 -5 -13 -30 -79 -56 -148 -26 -69 -51 -135 -56 -147 -5 -13
-13 -33 -18 -45 -5 -13 -31 -79 -57 -148 -25 -69 -51 -129 -55 -134 -19 -21
-6 -26 71 -26 57 0 80 4 80 13 1 18 66 187 77 198 6 6 73 8 163 7 l153 -3 31
-80 c17 -44 36 -87 41 -96 17 -27 51 -39 110 -39 51 0 56 2 50 18 -4 9 -16 40
-27 67 -18 49 -24 63 -46 115 -6 14 -36 93 -67 175 -31 83 -61 161 -67 175
-12 29 -14 33 -65 165 l-38 100 -78 3 c-76 3 -77 3 -88 -25z m140 -303 c22
-63 41 -121 41 -127 0 -10 -27 -13 -101 -13 -92 0 -101 2 -96 18 8 26 62 172
81 216 9 23 20 36 25 30 4 -5 27 -61 50 -124z"/>
<path d="M8800 1174 c0 -5 0 -189 0 -409 l0 -400 70 -3 71 -3 -2 298 c-1 167
2 298 7 300 5 1 90 -120 189 -269 99 -150 191 -285 203 -300 22 -25 30 -28 88
-28 l64 0 0 404 c0 314 -3 405 -12 409 -7 2 -38 4 -68 3 l-55 -1 -3 -282 c-1
-156 -6 -283 -10 -283 -4 0 -40 53 -81 118 -209 332 -258 405 -284 424 -29 21
-177 39 -177 22z"/>
<path d="M10275 1168 c-3 -7 -4 -191 -3 -408 l3 -395 235 -3 c198 -2 244 0
290 14 114 35 163 98 164 211 1 65 -2 74 -29 109 -17 20 -45 45 -64 55 -48 25
-48 25 -3 68 78 76 80 210 4 284 -68 65 -90 70 -355 74 -185 3 -239 1 -242 -9z
m459 -113 c63 -26 84 -101 46 -163 -30 -49 -74 -63 -201 -63 -60 -1 -111 -5
-114 -9 -10 -16 22 -78 46 -91 13 -6 53 -11 92 -10 187 5 279 -70 221 -180
-28 -56 -77 -69 -261 -69 l-163 0 0 293 c0 162 3 297 7 300 3 4 70 7 148 7
104 0 152 -4 179 -15z"/>
<path d="M11295 1165 c-6 -5 -24 -44 -39 -85 -15 -41 -31 -84 -36 -95 -5 -11
-38 -99 -75 -195 -37 -96 -71 -185 -76 -197 -5 -13 -13 -33 -18 -45 -5 -13
-22 -57 -38 -98 -15 -41 -29 -78 -31 -82 -2 -5 30 -8 71 -8 l75 0 16 42 c9 24
27 72 40 108 l24 65 152 3 c92 1 157 -1 165 -8 6 -5 18 -29 25 -52 7 -24 17
-47 22 -52 4 -6 8 -18 8 -27 0 -10 14 -31 31 -48 27 -28 37 -31 90 -31 60 0
67 6 50 38 -6 9 -31 73 -56 142 -26 69 -51 135 -56 148 -5 12 -13 32 -18 45
-5 12 -35 90 -66 172 -31 83 -65 169 -76 192 -10 24 -19 50 -19 58 0 17 -1 17
-89 19 -35 1 -69 -3 -76 -9z m109 -267 c15 -40 36 -95 47 -122 10 -27 19 -53
19 -57 0 -5 -45 -9 -100 -9 -55 0 -100 4 -100 8 0 5 14 47 31 93 17 46 38 103
46 127 8 23 18 40 22 38 4 -3 20 -38 35 -78z"/>
<path d="M11847 1173 c-4 -3 -7 -188 -7 -410 l0 -404 71 3 70 3 -1 292 c0 183
3 294 9 298 6 3 96 -124 202 -282 105 -158 198 -293 207 -300 11 -8 39 -12 75
-10 l57 2 3 402 c2 328 0 404 -11 408 -8 3 -38 5 -68 5 l-54 0 0 -274 c0 -151
-4 -277 -9 -280 -4 -3 -15 2 -23 12 -17 20 -198 301 -198 308 0 14 -133 201
-151 212 -23 14 -161 26 -172 15z"/>
<path d="M12660 770 l0 -410 70 0 70 0 0 118 0 117 71 78 c39 42 76 77 82 77
7 0 59 -80 117 -178 129 -218 142 -232 220 -232 34 0 62 5 68 13 7 9 -12 47
-70 142 -44 72 -88 144 -98 160 -9 17 -43 72 -74 123 -49 80 -55 95 -44 111 7
10 65 73 128 140 63 67 116 128 118 135 2 9 -19 12 -83 12 l-86 -1 -47 -53
c-141 -157 -279 -300 -289 -301 -9 -1 -13 44 -15 177 l-3 177 -67 3 -68 3 0
-411z"/>
</g>
</svg>
