<?xml version="1.0" standalone="no"?>
<!DOCTYPE svg PUBLIC "-//W3C//DTD SVG 20010904//EN"
 "http://www.w3.org/TR/2001/REC-SVG-20010904/DTD/svg10.dtd">
<svg version="1.0" xmlns="http://www.w3.org/2000/svg"
 width="1572.000000pt" height="401.000000pt" viewBox="0 0 1572.000000 401.000000"
 preserveAspectRatio="xMidYMid meet">

<g transform="translate(0.000000,401.000000) scale(0.100000,-0.100000)"
fill="#000000" stroke="none">
<path d="M3670 3380 l0 -320 35 0 c32 0 35 -2 37 -32 1 -18 5 8 9 57 9 102 24
221 55 420 9 53 34 96 74 123 l33 22 1479 0 c1640 0 1525 5 1568 -65 18 -30
20 -50 21 -271 1 -132 5 -252 9 -269 6 -24 8 -26 9 -7 1 15 7 22 21 22 20 0
20 7 20 298 0 163 3 307 6 320 l6 22 -1691 0 -1691 0 0 -320z"/>
<path d="M5990 3076 c0 -2 7 -7 16 -10 8 -3 12 -2 9 4 -6 10 -25 14 -25 6z"/>
<path d="M6047 3039 c7 -7 15 -10 18 -7 3 3 -2 9 -12 12 -14 6 -15 5 -6 -5z"/>
<path d="M6972 2980 c0 -14 2 -19 5 -12 2 6 2 18 0 25 -3 6 -5 1 -5 -13z"/>
<path d="M5978 2843 c12 -2 30 -2 40 0 9 3 -1 5 -23 4 -22 0 -30 -2 -17 -4z"/>
<path d="M5748 2823 c6 -2 18 -2 25 0 6 3 1 5 -13 5 -14 0 -19 -2 -12 -5z"/>
<path d="M5478 2793 c6 -2 18 -2 25 0 6 3 1 5 -13 5 -14 0 -19 -2 -12 -5z"/>
<path d="M5378 2773 c7 -3 16 -2 19 1 4 3 -2 6 -13 5 -11 0 -14 -3 -6 -6z"/>
<path d="M7890 2524 l0 -97 73 7 c39 4 136 9 213 12 l142 6 7 -237 c7 -230 1
-724 -11 -852 l-6 -63 187 0 187 0 -6 48 c-9 77 -19 964 -11 1037 l7 67 151
-6 c84 -3 180 -9 215 -12 l62 -6 0 96 0 96 -605 0 -605 0 0 -96z"/>
<path d="M9314 2068 c1 -304 -1 -600 -4 -658 l-5 -105 540 -3 c297 -1 545 0
550 2 6 2 9 40 7 96 l-3 92 -222 -6 c-122 -4 -287 -8 -367 -9 l-145 -2 -7 195
c-5 119 -4 198 1 203 6 6 108 9 245 8 l236 -2 0 95 c0 69 -4 97 -12 98 -7 1
-116 2 -243 3 l-230 0 4 175 c2 96 6 178 10 183 9 10 455 11 595 1 l106 -7 0
97 0 96 -529 0 -528 0 1 -552z"/>
<path d="M10657 2508 c10 -148 10 -861 0 -1055 l-8 -153 363 0 c375 0 473 8
583 45 196 67 285 167 285 321 0 96 -31 165 -106 233 -51 47 -72 59 -167 100
-45 19 -56 41 -21 41 21 0 104 47 138 78 15 15 41 50 57 77 49 85 38 207 -26
283 -35 41 -108 86 -185 113 -63 22 -78 23 -493 27 l-428 3 8 -113z m645 -49
c69 -14 134 -52 153 -89 21 -40 19 -129 -2 -160 -45 -64 -121 -101 -212 -102
-27 0 -57 -5 -65 -11 -13 -11 -76 -155 -76 -176 0 -5 44 -11 98 -14 190 -9
302 -73 334 -190 9 -36 9 -54 -1 -86 -35 -118 -160 -171 -401 -171 l-119 0 -6
53 c-9 73 -2 929 8 945 10 16 214 17 289 1z"/>
<path d="M4523 2533 c9 -2 25 -2 35 0 9 3 1 5 -18 5 -19 0 -27 -2 -17 -5z"/>
<path d="M4723 2533 c9 -2 25 -2 35 0 9 3 1 5 -18 5 -19 0 -27 -2 -17 -5z"/>
<path d="M4388 2513 c7 -3 16 -2 19 1 4 3 -2 6 -13 5 -11 0 -14 -3 -6 -6z"/>
<path d="M6370 2425 l-5 -80 -410 0 c-225 0 -426 4 -445 8 -35 8 -35 8 7 -12
47 -23 60 -38 46 -52 -13 -13 -75 -20 -68 -8 4 5 -34 10 -92 10 -71 1 -88 4
-63 9 34 8 -331 6 -380 -1 -24 -4 -29 -12 -61 -84 -10 -23 -28 -95 -35 -140
-3 -16 -9 -39 -14 -50 -5 -11 -11 -36 -15 -55 -3 -19 -8 -49 -11 -67 -4 -17
-12 -34 -20 -37 -16 -6 -34 23 -34 53 0 12 -4 21 -10 21 -5 0 -10 9 -10 20 0
11 -4 28 -9 38 -6 9 -17 44 -26 77 -9 33 -21 68 -26 77 -5 10 -9 25 -9 33 0 8
-3 15 -8 15 -9 0 -51 -28 -70 -47 -7 -7 -17 -13 -21 -13 -4 0 -16 -8 -27 -18
-10 -9 -41 -35 -69 -57 -27 -22 -52 -42 -55 -45 -3 -3 -46 -42 -97 -87 -83
-76 -113 -96 -113 -76 0 12 54 118 63 121 4 2 7 8 7 14 0 15 163 257 201 298
65 70 72 80 61 80 -6 0 -17 -7 -26 -15 -12 -13 -70 -15 -390 -15 -280 0 -376
3 -376 12 0 6 -3 9 -6 6 -14 -15 -21 -373 -13 -683 8 -338 20 -565 39 -765 15
-161 46 -375 49 -337 1 16 83 17 1565 17 1481 0 1565 -1 1570 -17 5 -21 -4
706 -10 757 -2 19 -7 240 -10 490 -5 424 -10 563 -21 533 -4 -10 -56 -13 -217
-13 -211 0 -213 0 -224 23 -10 20 -11 19 -11 -15 -1 -21 -5 -38 -11 -38 -5 0
-10 -11 -10 -24 0 -14 -4 -28 -10 -31 -5 -3 -10 -15 -10 -25 0 -11 -9 -24 -20
-30 -26 -14 -30 2 -33 170 -2 115 -3 123 -7 55z m-2152 -697 c7 -7 12 -23 12
-37 0 -13 4 -38 9 -55 5 -17 17 -58 26 -91 10 -33 31 -89 47 -124 28 -61 30
-63 61 -58 200 33 211 34 217 26 3 -4 -16 -44 -41 -90 -62 -112 -65 -122 -37
-149 49 -47 226 -150 258 -150 5 0 10 -7 10 -15 0 -12 -16 -15 -83 -15 -46 0
-87 4 -92 9 -6 5 -28 11 -50 14 -22 3 -52 8 -68 11 -19 4 -29 2 -33 -8 -6 -15
9 -131 21 -158 5 -12 2 -20 -11 -25 -13 -5 -29 7 -61 43 -65 73 -67 76 -136
206 -11 20 -23 36 -26 35 -7 -2 -123 54 -131 63 -3 3 -21 14 -41 24 -57 30
-72 44 -65 61 3 8 14 18 23 21 10 3 27 10 38 14 11 5 40 16 65 23 l45 15 1
200 c2 222 7 245 42 210z m1472 -522 c0 -12 -43 -54 -202 -197 -37 -34 -38
-35 -26 -77 14 -57 6 -64 -89 -72 -49 -4 -93 -14 -118 -27 -72 -38 -187 -79
-267 -97 -49 -11 -32 16 47 74 75 55 88 70 60 70 -8 0 -15 5 -15 10 0 6 -11
10 -23 10 -13 0 -27 3 -31 8 -4 4 -11 7 -14 7 -28 3 -53 19 -50 33 2 12 15 18
48 20 25 1 88 10 140 19 106 18 116 25 212 155 24 31 48 56 53 54 6 -1 11 -28
13 -59 2 -31 5 -57 9 -57 11 0 141 72 188 105 56 38 65 41 65 21z"/>
<path d="M5228 2463 c7 -3 16 -2 19 1 4 3 -2 6 -13 5 -11 0 -14 -3 -6 -6z"/>
<path d="M6492 2430 c0 -19 2 -27 5 -17 2 9 2 25 0 35 -3 9 -5 1 -5 -18z"/>
<path d="M4278 2433 c18 -2 45 -2 60 0 15 2 0 4 -33 4 -33 0 -45 -2 -27 -4z"/>
<path d="M5328 2423 c7 -3 16 -2 19 1 4 3 -2 6 -13 5 -11 0 -14 -3 -6 -6z"/>
<path d="M4403 2413 c9 -2 25 -2 35 0 9 3 1 5 -18 5 -19 0 -27 -2 -17 -5z"/>
<path d="M5375 2410 c3 -5 8 -10 11 -10 2 0 4 5 4 10 0 6 -5 10 -11 10 -5 0
-7 -4 -4 -10z"/>
<path d="M4468 2393 c6 -2 18 -2 25 0 6 3 1 5 -13 5 -14 0 -19 -2 -12 -5z"/>
<path d="M5448 2373 c7 -3 16 -2 19 1 4 3 -2 6 -13 5 -11 0 -14 -3 -6 -6z"/>
</g>
</svg>
