<?xml version="1.0" standalone="no"?>
<!DOCTYPE svg PUBLIC "-//W3C//DTD SVG 20010904//EN"
 "http://www.w3.org/TR/2001/REC-SVG-20010904/DTD/svg10.dtd">
<svg version="1.0" xmlns="http://www.w3.org/2000/svg"
 width="1572.000000pt" height="401.000000pt" viewBox="0 0 1572.000000 401.000000"
 preserveAspectRatio="xMidYMid meet">

<g transform="translate(0.000000,401.000000) scale(0.100000,-0.100000)"
fill="#000000" stroke="none">
<path d="M5639 3153 c5 -10 23 -58 40 -108 35 -104 116 -333 124 -355 3 -8 20
-55 36 -105 17 -49 65 -189 108 -310 l78 -220 5 -445 5 -445 222 -3 223 -2 2
447 3 448 53 145 c30 80 57 156 62 170 5 14 41 117 80 230 40 113 76 216 80
230 4 14 33 96 64 183 l55 157 -239 0 -239 0 -10 -37 c-73 -280 -115 -443
-119 -465 -11 -70 -27 -25 -108 304 l-49 198 -243 0 c-228 0 -242 -1 -233 -17z"/>
<path d="M9770 2165 l0 -1005 225 0 225 0 0 299 0 298 26 47 c14 26 31 45 36
44 5 -2 18 -26 28 -53 10 -28 34 -93 53 -145 72 -197 109 -298 139 -380 16
-47 35 -91 40 -98 8 -9 65 -12 223 -12 116 0 214 2 217 5 3 3 -23 79 -57 168
-35 89 -111 288 -170 442 -58 154 -110 289 -115 300 -4 11 -28 72 -52 136
l-45 116 56 114 c30 63 122 251 203 418 81 167 148 305 148 307 0 2 -101 4
-224 4 l-224 0 -15 -37 c-8 -21 -31 -72 -50 -113 -19 -41 -44 -96 -55 -121
-12 -25 -46 -98 -76 -161 -29 -64 -57 -125 -61 -137 -19 -62 -25 0 -25 274 l0
295 -225 0 -225 0 0 -1005z"/>
<path d="M13780 2885 c0 -183 -4 -285 -10 -285 -5 0 -10 5 -10 10 0 6 -27 28
-59 49 -71 45 -152 65 -248 59 -109 -6 -180 -52 -227 -147 -48 -96 -51 -141
-51 -676 0 -456 2 -505 18 -557 45 -143 120 -201 269 -206 145 -6 261 47 301
138 10 22 12 18 17 -40 l5 -65 198 -3 197 -2 0 1005 0 1005 -200 0 -200 0 0
-285z m-29 -514 l29 -29 0 -410 0 -410 -25 -30 c-14 -16 -36 -32 -49 -34 -31
-6 -82 15 -94 39 -5 10 -13 196 -17 415 -6 356 -5 400 10 431 29 63 98 76 146
28z"/>
<path d="M14372 3013 l3 -158 198 -3 197 -2 0 160 0 160 -200 0 -201 0 3 -157z"/>
<path d="M7112 2705 c-136 -30 -252 -110 -300 -207 -30 -61 -38 -116 -32 -218
l5 -85 195 0 195 0 5 92 c6 116 25 147 92 151 64 4 81 -18 81 -106 0 -42 -6
-79 -16 -98 -31 -59 -109 -114 -239 -165 -171 -67 -250 -126 -295 -217 l-28
-57 0 -230 0 -230 27 -52 c32 -59 83 -114 131 -140 25 -14 54 -18 137 -17 118
2 172 17 233 66 39 31 52 29 59 -7 3 -19 12 -20 206 -23 l202 -2 0 613 c0 572
-1 618 -19 670 -33 102 -109 183 -214 231 -97 44 -296 59 -425 31z m238 -1010
c0 -182 -3 -232 -15 -255 -36 -69 -118 -67 -145 4 -5 15 -10 91 -10 168 0 173
11 203 96 266 31 23 60 42 65 42 5 0 9 -101 9 -225z"/>
<path d="M8575 2709 c-67 -16 -101 -36 -154 -95 -55 -60 -59 -59 -63 21 l-3
50 -192 3 -193 2 0 -950 0 -950 196 2 195 3 -1 223 c-1 234 2 247 42 197 11
-14 43 -38 71 -52 45 -23 67 -28 159 -31 130 -5 187 11 240 66 92 96 98 138
98 727 0 511 -2 533 -48 639 -55 124 -191 181 -347 145z m-74 -329 c47 -26 49
-43 49 -460 0 -429 -1 -434 -60 -465 -41 -21 -55 -19 -92 14 l-33 29 -3 379
c-2 208 0 398 3 422 11 75 75 113 136 81z"/>
<path d="M11708 2705 c-62 -17 -111 -48 -180 -114 l-58 -54 0 71 0 72 -185 0
-185 0 0 -760 0 -760 200 0 200 0 0 474 c0 327 4 484 11 507 18 53 53 93 105
119 41 22 61 25 146 25 l98 -1 0 218 0 218 -52 -1 c-29 0 -74 -7 -100 -14z"/>
<path d="M12310 2694 c-180 -48 -284 -164 -309 -347 -14 -97 -14 -777 -1 -868
13 -88 40 -148 92 -205 100 -109 207 -148 408 -147 144 0 211 13 300 58 62 32
124 99 156 170 26 55 28 73 32 208 l4 147 -196 0 c-108 0 -199 1 -203 3 -5 1
-10 -59 -13 -133 -3 -74 -9 -142 -13 -151 -10 -20 -50 -39 -81 -39 -13 0 -35
11 -50 25 l-26 24 2 208 3 208 288 3 289 2 -4 268 c-4 227 -7 274 -23 317 -21
57 -60 118 -102 157 -37 35 -145 85 -212 98 -78 15 -276 11 -341 -6z m242
-285 c17 -22 20 -45 21 -150 l2 -124 -85 0 -85 0 -3 110 c-3 125 0 147 29 176
29 29 95 23 121 -12z"/>
<path d="M9170 1920 l0 -760 193 2 192 3 3 758 2 757 -195 0 -195 0 0 -760z"/>
<path d="M14370 1920 l0 -760 200 0 200 0 0 760 0 760 -200 0 -200 0 0 -760z"/>
</g>
</svg>
