<?xml version="1.0" standalone="no"?>
<!DOCTYPE svg PUBLIC "-//W3C//DTD SVG 20010904//EN"
 "http://www.w3.org/TR/2001/REC-SVG-20010904/DTD/svg10.dtd">
<svg version="1.0" xmlns="http://www.w3.org/2000/svg"
 width="1572.000000pt" height="401.000000pt" viewBox="0 0 1572.000000 401.000000"
 preserveAspectRatio="xMidYMid meet">

<g transform="translate(0.000000,401.000000) scale(0.100000,-0.100000)"
fill="#000000" stroke="none">
<path d="M830 3471 c0 -76 3 -102 14 -108 8 -4 30 -23 50 -41 l36 -32 0 -94
c0 -97 -4 -113 -27 -95 -11 9 -13 -5 -13 -84 l0 -96 84 -70 c46 -39 86 -71 90
-71 3 0 6 42 6 94 0 83 -2 95 -21 107 -18 12 -20 25 -21 112 -1 53 2 100 5
104 4 3 22 -6 41 -21 19 -14 37 -26 40 -26 3 0 6 42 6 93 l-1 92 -57 45 c-80
64 -89 71 -164 134 l-68 57 0 -100z"/>
<path d="M1527 3563 c-4 -6 -70 -62 -147 -124 l-140 -113 0 -293 c0 -284 1
-294 18 -281 10 7 78 60 150 118 l131 105 1 98 0 98 -86 -70 c-48 -39 -90 -71
-95 -71 -5 0 -9 44 -8 98 l0 97 62 48 c34 27 77 61 95 76 l33 28 -3 99 c-2 54
-6 94 -11 87z"/>
<path d="M450 2839 l0 -274 33 -21 c17 -12 102 -77 187 -144 85 -68 200 -159
255 -203 55 -43 102 -84 104 -89 3 -10 -117 -138 -130 -138 -3 0 -53 37 -110
83 -273 215 -321 252 -330 255 -5 2 -9 -106 -9 -265 l0 -268 33 -22 c17 -13
49 -38 71 -56 l38 -33 -71 -69 -71 -69 0 -271 0 -271 316 -250 c173 -137 324
-255 335 -263 19 -13 19 -8 19 256 l0 269 -157 125 c-87 69 -212 167 -278 219
-66 51 -126 99 -133 105 -11 10 0 25 53 76 36 35 70 65 75 67 5 2 62 -39 127
-90 229 -182 294 -233 303 -236 6 -2 10 99 10 265 l0 268 -65 49 c-75 56 -75
53 9 136 l56 54 0 276 0 275 -83 66 c-45 36 -133 106 -196 155 -63 49 -159
125 -215 169 -56 44 -118 93 -138 109 l-38 28 0 -273z"/>
<path d="M1825 3039 c-49 -39 -139 -109 -200 -157 -60 -47 -172 -135 -247
-195 l-138 -109 0 -264 c0 -145 3 -264 8 -264 4 0 18 9 32 20 14 11 28 20 33
20 4 0 7 -56 7 -124 l0 -123 -40 -28 -40 -28 0 -269 c0 -257 1 -268 18 -259
10 5 24 17 32 25 7 9 16 16 21 16 5 0 9 -55 9 -123 l0 -124 -40 -32 -40 -32 0
-270 0 -270 80 63 c44 35 109 86 144 113 35 28 152 119 260 204 l196 154 0
467 0 467 -24 36 -25 36 25 44 24 44 -2 517 -3 516 -90 -71z m-27 -601 c8 -8
12 -46 12 -103 0 -90 0 -92 -32 -122 -40 -37 -335 -273 -343 -273 -3 0 -5 56
-5 124 l0 123 63 49 c34 26 64 51 67 54 10 11 175 137 195 148 25 15 28 15 43
0z m10 -883 c2 -55 -2 -98 -9 -112 -6 -12 -71 -68 -143 -124 -72 -57 -149
-118 -170 -136 -22 -18 -43 -33 -48 -33 -4 0 -8 55 -7 123 l0 122 136 105 c74
58 147 115 162 127 15 13 37 22 51 20 24 -2 25 -4 28 -92z"/>
<path d="M2738 2718 c-20 -73 -34 -136 -31 -140 2 -5 152 -8 334 -8 209 0 329
-4 329 -10 0 -9 -80 -143 -513 -850 -99 -162 -188 -309 -198 -326 -16 -27 -19
-53 -19 -173 l0 -141 519 0 c403 0 521 3 528 13 11 13 91 221 95 247 3 13 -45
16 -364 20 l-366 5 56 90 c30 50 110 180 177 290 67 110 210 345 318 522 l197
322 0 135 0 136 -513 0 -512 0 -37 -132z"/>
<path d="M8355 2828 c-3 -7 -4 -404 -3 -883 l3 -870 378 -3 c426 -3 441 -1
544 68 32 21 65 45 73 52 31 26 88 104 113 154 27 53 57 179 57 238 0 54 -28
163 -57 220 -34 67 -124 154 -197 189 l-58 29 69 71 c77 80 123 154 147 236
69 237 -97 446 -398 500 -89 16 -665 15 -671 -1z m655 -204 c135 -40 205 -129
203 -258 -1 -80 -29 -142 -86 -192 -72 -63 -121 -74 -345 -74 l-192 0 0 270 0
270 183 0 c138 0 197 -4 237 -16z m115 -755 c101 -47 167 -166 168 -299 0
-127 -59 -213 -182 -262 -52 -21 -71 -23 -291 -23 l-235 0 -3 303 -2 302 250
0 c234 0 253 -1 295 -21z"/>
<path d="M11755 2828 c-3 -7 -4 -404 -3 -883 l3 -870 120 0 120 0 5 340 c5
335 5 340 26 343 17 2 60 -55 249 -333 l229 -335 168 0 c153 0 189 6 159 25
-9 5 -226 264 -306 365 -16 21 -87 106 -158 190 l-127 152 77 87 c202 224 353
391 406 447 31 33 57 65 57 70 0 10 -292 10 -309 0 -6 -4 -74 -89 -152 -189
-274 -350 -272 -347 -296 -347 l-23 0 0 475 0 475 -120 0 c-87 0 -122 -3 -125
-12z"/>
<path d="M3995 2801 c-172 -79 -120 -330 68 -331 54 0 79 10 120 49 57 52 71
125 38 196 -23 50 -45 70 -100 90 -56 19 -77 19 -126 -4z"/>
<path d="M7347 2704 c-4 -4 -7 -80 -7 -170 0 -183 5 -174 -86 -174 l-54 0 0
-95 0 -94 63 -3 62 -3 5 -460 c4 -404 7 -464 22 -490 22 -41 64 -79 118 -107
41 -21 59 -23 228 -26 l182 -4 0 96 0 96 -100 0 c-96 0 -101 1 -132 29 l-33
29 -3 393 c-2 216 -1 404 3 416 5 22 9 23 120 23 63 0 115 1 115 3 0 3 56 157
65 180 7 16 -4 17 -149 17 l-156 0 -2 173 -3 172 -126 3 c-69 1 -128 -1 -132
-4z"/>
<path d="M5455 2395 c-55 -8 -116 -19 -137 -25 l-36 -10 -30 -128 c-17 -70
-29 -128 -28 -130 2 -1 50 9 108 22 57 14 141 28 185 32 71 6 87 4 125 -15 63
-31 89 -77 95 -172 l6 -79 -64 0 c-79 0 -281 -25 -329 -40 -236 -76 -340 -228
-328 -477 5 -104 30 -165 91 -220 93 -84 273 -123 419 -92 54 12 154 55 164
70 3 5 14 9 24 9 14 0 20 -8 22 -32 l3 -33 138 -3 137 -3 0 509 c0 564 0 566
-66 669 -86 135 -247 183 -499 148z m275 -855 l0 -150 -35 -39 c-43 -47 -105
-71 -186 -71 -122 0 -209 75 -209 180 0 50 39 135 79 174 45 44 92 55 229 56
l122 0 0 -150z"/>
<path d="M6545 2394 c-55 -7 -116 -18 -136 -24 l-37 -10 -27 -113 c-15 -61
-29 -121 -32 -131 -4 -16 -1 -18 18 -12 195 54 367 66 416 30 56 -42 73 -79
73 -165 l0 -79 -67 0 c-85 0 -262 -25 -326 -44 -210 -66 -316 -211 -319 -436
-2 -190 91 -304 285 -346 127 -27 233 -13 355 47 72 35 92 33 92 -11 l0 -31
138 3 137 3 3 450 c2 292 -1 477 -8 528 -26 184 -116 294 -277 338 -77 22
-145 22 -288 3z m265 -863 l0 -159 -40 -35 c-100 -86 -274 -75 -348 21 -23 31
-27 45 -27 101 1 74 23 127 73 174 46 44 93 56 225 57 l117 0 0 -159z"/>
<path d="M10764 2390 c-45 -10 -87 -21 -93 -24 -8 -5 -11 -193 -11 -652 l0
-645 113 3 112 3 5 460 c6 520 0 484 89 550 58 42 88 54 166 70 116 22 203
-14 225 -94 6 -22 10 -230 10 -513 l0 -478 115 0 115 0 0 528 0 527 -29 60
c-17 33 -41 72 -54 87 -75 81 -196 138 -296 138 -100 0 -229 -52 -311 -127
-23 -20 -41 -30 -45 -23 -3 6 -5 41 -4 78 3 79 7 77 -107 52z"/>
<path d="M9995 2389 c-50 -10 -187 -51 -236 -72 -24 -10 -27 -18 -38 -100 -6
-50 -8 -94 -4 -98 4 -4 26 1 48 12 72 36 225 79 298 85 89 8 146 -7 193 -48
54 -48 64 -75 64 -182 l0 -94 -197 -4 c-176 -3 -205 -6 -263 -27 -126 -44
-228 -151 -264 -275 -25 -84 -22 -219 5 -290 83 -221 407 -307 672 -177 31 16
60 24 63 19 3 -4 4 -25 2 -46 l-3 -37 95 0 95 0 0 535 0 535 -26 55 c-36 76
-106 145 -186 182 -58 28 -79 32 -167 34 -56 2 -123 -1 -151 -7z m325 -765 c0
-188 -29 -277 -113 -351 -50 -44 -99 -58 -202 -58 -80 0 -95 3 -137 27 -67 40
-88 88 -88 206 0 78 4 100 24 141 26 50 76 100 127 126 48 25 104 33 252 34
l137 1 0 -126z"/>
<path d="M13208 2390 c-67 -12 -240 -67 -259 -82 -12 -9 -20 -39 -26 -101 -5
-49 -6 -90 -2 -93 4 -2 36 10 73 26 36 17 112 42 168 56 165 43 271 23 330
-62 25 -36 28 -48 29 -139 l2 -100 -199 -6 c-111 -3 -217 -12 -239 -19 -104
-32 -209 -120 -258 -217 -53 -103 -61 -280 -19 -377 94 -212 447 -287 689
-146 17 10 34 16 37 13 3 -4 6 -26 6 -50 l0 -44 98 3 97 3 3 480 c3 503 -2
585 -39 657 -36 70 -103 132 -181 169 -65 29 -84 33 -168 35 -52 2 -116 -1
-142 -6z m310 -797 c-3 -135 -7 -165 -25 -205 -33 -72 -68 -112 -125 -144 -48
-26 -62 -28 -153 -29 -74 0 -108 5 -130 17 -74 40 -105 106 -105 220 0 66 5
89 27 134 41 84 108 135 203 154 19 4 97 8 174 9 l138 1 -4 -157z"/>
<path d="M14230 2383 c-130 -23 -244 -105 -292 -210 -50 -111 -35 -253 37
-359 50 -72 142 -135 240 -161 210 -58 291 -97 321 -154 34 -66 -6 -158 -91
-206 -104 -58 -273 -46 -441 33 -57 27 -74 30 -74 12 0 -7 -12 -44 -26 -82
l-27 -69 23 -17 c13 -10 58 -29 99 -44 284 -96 484 -72 637 79 83 81 116 148
122 246 4 67 1 84 -21 132 -47 104 -157 189 -299 232 -153 47 -182 57 -219 80
-104 66 -112 206 -16 263 87 51 209 54 352 8 43 -14 81 -23 84 -20 2 2 15 36
27 74 l22 71 -22 14 c-86 56 -320 98 -436 78z"/>
<path d="M3934 2365 c-2 -5 -3 -298 -2 -650 l3 -640 135 0 135 0 0 648 0 648
-134 2 c-82 1 -135 -2 -137 -8z"/>
<path d="M14977 2372 l-97 -3 2 -647 3 -647 103 -3 102 -3 0 650 c0 357 -3
651 -7 653 -5 2 -52 2 -106 0z"/>
<path d="M4450 1720 l0 -641 123 3 122 3 2 428 2 428 28 39 c15 21 50 53 77
72 46 31 54 33 160 38 l111 5 3 119 c2 89 -1 121 -10 128 -22 13 -151 9 -205
-7 -28 -8 -78 -33 -111 -55 -33 -22 -63 -40 -66 -40 -4 0 -6 26 -5 58 l3 57
-117 3 -117 3 0 -641z"/>
</g>
</svg>
